{"title":"Carrie 2013 CAM V3 XViD MP3 AVi MURDER","uid":9252853,"size":1114250834,"categoryP":"video","categoryS":"movies","magnet":"?xt=urn:btih:0695ef37a3921bfe1334e28331c2c968951029db&amp;dn=Carrie+2013+CAM+V3+XViD+MP3+AVi+MURDER&amp;tr=udp%3A%2F%2Ftracker.openbittorrent.com%3A80&amp;tr=udp%3A%2F%2Fopen.demonii.com%3A1337&amp;tr=udp%3A%2F%2Ftracker.coppersurfer.tk%3A6969&amp;tr=udp%3A%2F%2Fexodus.desync.com%3A6969","seeders":2,"leechers":0,"uploader":".BONE.","files":2,"time":1385494707,"description":"\n\nCarrie 2013 CAM V3 XViD MP3 AVi MURDER\n &lt;a href=&quot;\nhttp://www.imdb.com/title/tt1939659&quot; rel=&quot;nofollow&quot; target=&quot;_NEW&quot;&gt;\nhttp://www.imdb.com/title/tt1939659&lt;/a&gt;\n\nA reimagining of the classic horror tale about Carrie White, a shy girl outcast by her peers and sheltered by her deeply religious mother, who unleashes telekinetic terror on her small town after being pushed too far at her senior prom.\n\n\nFormat                                   : AVI\nFormat/Info                              : Audio Video Interleave\nFile size                                : 1.04 GiB\nDuration                                 : 1h 30mn\nOverall bit rate                         : 1 634 Kbps\n\nVideo\nID                                       : 0\nFormat                                   : MPEG-4 Visual\nFormat profile                           : Advanced Simple@L5\nFormat settings, BVOP                    : 2\nFormat settings, QPel                    : No\nFormat settings, GMC                     : No warppoints\nFormat settings, Matrix                  : Default (H.263)\nMuxing mode                              : Packed bitstream\nCodec ID                                 : XVID\nCodec ID/Hint                            : XviD\nDuration                                 : 1h 30mn\nBit rate                                 : 1 527 Kbps\nWidth                                    : 720 pixels\nHeight                                   : 404 pixels\nDisplay aspect ratio                     : 16:9\nFrame rate                               : 30.042 fps\nOriginal frame rate                      : 30.048 fps\nColor space                              : YUV\nChroma subsampling                       : 4:2:0\nBit depth                                : 8 bits\nScan type                                : Progressive\nCompression mode                         : Lossy\nBits/(Pixel*Frame)                       : 0.175\nStream size                              : 993 MiB (93%)\nWriting library                          : XviD 64\n\nAudio\nID                                       : 1\nFormat                                   : MPEG Audio\nFormat version                           : Version 1\nFormat profile                           : Layer 3\nCodec ID                                 : 55\nCodec ID/Hint                            : MP3\nDuration                                 : 1h 30mn\nBit rate mode                            : Constant\nBit rate                                 : 96.0 Kbps\nChannel count                            : 1 channel\nSampling rate                            : 44.1 KHz\nCompression mode                         : Lossy\nStream size                              : 62.4 MiB (6%)\nAlignment                                : Split accross interleaves\nInterleave, duration                     : 34 ms (1.01 video frame)\nWriting library                          : LAMELAME_MAJOR_VERSI","torrent":{"xt":"urn:btih:0695ef37a3921bfe1334e28331c2c968951029db","amp;dn":"Carrie+2013+CAM+V3+XViD+MP3+AVi+MURDER","amp;tr":["udp%3A%2F%2Ftracker.openbittorrent.com%3A80","udp%3A%2F%2Fopen.demonii.com%3A1337","udp%3A%2F%2Ftracker.coppersurfer.tk%3A6969","udp%3A%2F%2Fexodus.desync.com%3A6969"],"infoHash":"0695ef37a3921bfe1334e28331c2c968951029db","infoHashBuffer":{"type":"Buffer","data":[6,149,239,55,163,146,27,254,19,52,226,131,49,194,201,104,149,16,41,219]},"announce":[],"urlList":[]}}